<svg width="106" height="47" viewBox="0 0 106 47" fill="none" xmlns="http://www.w3.org/2000/svg">
<path d="M103.638 6H20.3617C19.0574 6 18 7.23751 18 8.76405V32.236C18 33.7625 19.0574 35 20.3617 35H103.638C104.943 35 106 33.7625 106 32.236V8.76405C106 7.23751 104.943 6 103.638 6Z" fill="#4EB796"/>
<g filter="url(#filter0_d_1188_932)">
<path d="M38.5629 5.74259L38.4516 5.09031L37.8254 4.85255C28.769 1.41269 20.3286 1.59517 14.8429 2.35373C8.88777 3.1776 5.10081 4.80471 4.94268 4.87346L4.36248 5.12612L4.25726 5.74259C4.22034 5.95858 3.37127 11.1083 4.97553 17.7084C6.45886 23.8107 10.4118 32.333 20.8201 38.2811L21.4108 38.6188L22.0015 38.2811C32.4092 32.333 36.3616 23.8104 37.8446 17.7084C39.4489 11.1083 38.5998 5.95858 38.5629 5.74259Z" fill="#4EB796"/>
</g>
<path d="M37.3173 3.61915C37.3173 3.61915 40.7566 24.5721 21.4106 36.0863C2.06311 24.5721 5.50277 3.61915 5.50277 3.61915C5.50277 3.61915 20.3321 -3.09957 37.3175 3.61915H37.3173Z" fill="white"/>
<path d="M21.4109 36.7191L20.8203 36.3814C10.4119 30.4332 6.45888 21.9109 4.97553 15.8086C3.37126 9.20848 4.22034 4.0587 4.25726 3.84299L4.36249 3.22652L4.94269 2.97414C5.10111 2.90539 8.8881 1.27798 14.843 0.454394C20.3287 -0.304166 28.7693 -0.486931 37.8254 2.95294L38.4516 3.19071L38.5629 3.84299C38.5998 4.05898 39.4489 9.20876 37.8446 15.8089C36.3616 21.9109 32.4089 30.4335 22.0013 36.3817L21.4107 36.7194L21.4109 36.7191ZM6.49958 4.86137C6.33883 6.38336 6.08826 10.4847 7.2882 15.358C9.2532 23.3389 14.0029 29.6171 21.4112 34.0289C28.819 29.6171 33.5681 23.3389 35.5331 15.358C36.7293 10.4999 36.4839 6.40943 36.3232 4.87512C22.0871 -0.26406 9.37732 3.79773 6.49987 4.86108L6.49958 4.86137Z" fill="url(#paint0_linear_1188_932)"/>
<path d="M18.5434 25.9569L11.5972 18.6093L14.9739 15.0375L18.5434 18.8133L29.7453 6.96411L33.1223 10.5359L18.5434 25.9569Z" fill="url(#paint1_linear_1188_932)"/>
<path d="M50.2695 21.8811H48.0063V17.2595H43.7656V21.8811H41.4951V11.1731H43.7656V15.3699H48.0063V11.1731H50.2695V21.8811ZM55.0795 21.8811V11.1731H57.35V21.8811H55.0795ZM65.5657 11.1731C66.9476 11.1731 67.9559 11.4709 68.5906 12.0667C69.2254 12.6575 69.5428 13.4729 69.5428 14.5129C69.5428 14.9817 69.472 15.4309 69.3304 15.8606C69.1888 16.2854 68.9568 16.6638 68.6346 16.9958C68.3172 17.3279 67.8924 17.5916 67.3602 17.7869C66.8279 17.9773 66.1712 18.0725 65.3899 18.0725H64.4158V21.8811H62.1453V11.1731H65.5657ZM65.4485 13.0334H64.4158V16.2122H65.1629C65.5877 16.2122 65.9563 16.156 66.2688 16.0437C66.5813 15.9314 66.823 15.7556 66.9939 15.5164C67.1648 15.2771 67.2503 14.9695 67.2503 14.5935C67.2503 14.0662 67.1038 13.6755 66.8108 13.4216C66.5179 13.1628 66.0638 13.0334 65.4485 13.0334ZM80.2194 21.8811L79.4431 19.3323H75.5393L74.7629 21.8811H72.3166L76.0959 11.1292H78.8718L82.6657 21.8811H80.2194ZM78.9011 17.428L78.1247 14.9377C78.0759 14.7717 78.01 14.5593 77.927 14.3005C77.8488 14.0369 77.7683 13.7708 77.6853 13.5022C77.6071 13.2288 77.5437 12.9919 77.4948 12.7917C77.446 12.9919 77.3776 13.241 77.2897 13.5388C77.2067 13.8318 77.1262 14.1101 77.048 14.3738C76.9699 14.6375 76.9138 14.8254 76.8796 14.9377L76.1105 17.428H78.9011ZM92.6759 21.8811L91.8995 19.3323H87.9957L87.2193 21.8811H84.773L88.5523 11.1292H91.3282L95.1222 21.8811H92.6759ZM91.3575 17.428L90.5812 14.9377C90.5323 14.7717 90.4664 14.5593 90.3834 14.3005C90.3053 14.0369 90.2247 13.7708 90.1417 13.5022C90.0636 13.2288 90.0001 12.9919 89.9513 12.7917C89.9024 12.9919 89.8341 13.241 89.7462 13.5388C89.6632 13.8318 89.5826 14.1101 89.5045 14.3738C89.4264 14.6375 89.3702 14.8254 89.336 14.9377L88.567 17.428H91.3575Z" fill="white"/>
<path d="M42.8027 25.5361C42.5452 25.5361 42.314 25.5817 42.1089 25.6729C41.9061 25.7617 41.734 25.8927 41.5928 26.0659C41.4515 26.2368 41.3433 26.443 41.2681 26.6846C41.1929 26.9261 41.1553 27.1984 41.1553 27.5015C41.1553 27.9048 41.2145 28.2534 41.333 28.5474C41.4538 28.8413 41.6349 29.068 41.8765 29.2275C42.118 29.387 42.4222 29.4668 42.7891 29.4668C43.0078 29.4668 43.2163 29.4474 43.4146 29.4087C43.6151 29.3677 43.8145 29.3153 44.0127 29.2515V29.853C43.8213 29.9259 43.623 29.9795 43.418 30.0137C43.2152 30.0501 42.9771 30.0684 42.7036 30.0684C42.1932 30.0684 41.7682 29.9624 41.4287 29.7505C41.0915 29.5386 40.8397 29.2412 40.6733 28.8584C40.507 28.4733 40.4238 28.0199 40.4238 27.498C40.4238 27.1198 40.4762 26.7746 40.5811 26.4624C40.6859 26.1479 40.8397 25.8768 41.0425 25.6489C41.2453 25.4188 41.4937 25.2422 41.7876 25.1191C42.0838 24.9938 42.4245 24.9312 42.8096 24.9312C43.0602 24.9312 43.304 24.9585 43.541 25.0132C43.7803 25.0656 44.0002 25.1396 44.2007 25.2354L43.9409 25.8198C43.7746 25.7446 43.5957 25.6785 43.4043 25.6216C43.2152 25.5646 43.0146 25.5361 42.8027 25.5361ZM51.438 27.4946C51.438 27.8797 51.389 28.2306 51.2911 28.5474C51.1931 28.8618 51.0472 29.133 50.8536 29.3608C50.6621 29.5864 50.4218 29.7607 50.1324 29.8838C49.8453 30.0068 49.5092 30.0684 49.1241 30.0684C48.7321 30.0684 48.3903 30.0068 48.0987 29.8838C47.8093 29.7607 47.5689 29.5853 47.3775 29.3574C47.1861 29.1296 47.0425 28.8573 46.9468 28.5405C46.8534 28.2238 46.8067 27.8729 46.8067 27.4878C46.8067 26.9751 46.891 26.5262 47.0596 26.1411C47.2282 25.756 47.4846 25.4575 47.8287 25.2456C48.175 25.0314 48.6102 24.9243 49.1343 24.9243C49.6402 24.9243 50.064 25.0303 50.4058 25.2422C50.7476 25.4541 51.0051 25.7526 51.1783 26.1377C51.3514 26.5205 51.438 26.9728 51.438 27.4946ZM47.5415 27.4946C47.5415 27.9002 47.5974 28.2511 47.709 28.5474C47.823 28.8413 47.9961 29.0692 48.2286 29.231C48.4633 29.3905 48.7618 29.4702 49.1241 29.4702C49.4909 29.4702 49.7906 29.3905 50.023 29.231C50.2554 29.0692 50.4263 28.8413 50.5357 28.5474C50.6451 28.2511 50.6997 27.9002 50.6997 27.4946C50.6997 26.8794 50.5744 26.3986 50.3238 26.0522C50.0731 25.7036 49.6766 25.5293 49.1343 25.5293C48.7697 25.5293 48.4701 25.609 48.2354 25.7686C48.0007 25.9258 47.8264 26.1514 47.7124 26.4453C47.5985 26.737 47.5415 27.0868 47.5415 27.4946ZM56.6656 30L55.107 25.7036H55.0797C55.0865 25.797 55.0933 25.9178 55.1002 26.0659C55.1093 26.2118 55.1161 26.3713 55.1207 26.5444C55.1275 26.7153 55.1309 26.884 55.1309 27.0503V30H54.4884V25.0029H55.4967L56.9766 29.0737H57.0006L58.5181 25.0029H59.5196V30H58.8429V27.0093C58.8429 26.8589 58.8451 26.7028 58.8497 26.541C58.8542 26.377 58.8599 26.222 58.8668 26.0762C58.8759 25.9281 58.8839 25.8062 58.8907 25.7104H58.8599L57.2638 30H56.6656ZM64.1969 25.0029C64.8418 25.0029 65.3123 25.1317 65.6085 25.3892C65.907 25.6466 66.0563 26.0124 66.0563 26.4863C66.0563 26.7005 66.0221 26.9045 65.9537 27.0981C65.8854 27.2896 65.7737 27.4593 65.6188 27.6074C65.4661 27.7533 65.2644 27.8695 65.0138 27.9561C64.7631 28.0404 64.4555 28.0825 64.0909 28.0825H63.5201V30H62.8195V25.0029H64.1969ZM64.1422 25.5908H63.5201V27.4912H64.0157C64.3051 27.4912 64.5478 27.4593 64.7438 27.3955C64.9397 27.3294 65.0878 27.2246 65.1881 27.0811C65.2884 26.9375 65.3385 26.7484 65.3385 26.5137C65.3385 26.2038 65.2417 25.9725 65.048 25.8198C64.8543 25.6672 64.5524 25.5908 64.1422 25.5908ZM69.0382 30V25.0029H69.7389V29.3916H71.9093V30H69.0382ZM74.7307 30V25.0029H75.4313V30H74.7307ZM81.8586 30L81.3049 28.5132H79.3464L78.7996 30H78.0715L79.9788 24.9824H80.6965L82.5935 30H81.8586ZM81.1101 27.9048L80.5837 26.4316C80.5678 26.3815 80.5427 26.3063 80.5085 26.2061C80.4766 26.1058 80.4436 26.0021 80.4094 25.895C80.3775 25.7879 80.3513 25.6991 80.3308 25.6284C80.308 25.7218 80.2818 25.821 80.2522 25.9258C80.2226 26.0283 80.1929 26.1252 80.1633 26.2163C80.136 26.3052 80.1132 26.377 80.095 26.4316L79.5618 27.9048H81.1101ZM89.2737 30H88.4329L85.8455 25.9053H85.8181C85.825 26.0283 85.833 26.1639 85.8421 26.312C85.8512 26.4578 85.858 26.6117 85.8626 26.7734C85.8694 26.9329 85.874 27.0947 85.8763 27.2588V30H85.2337V25.0029H86.0677L88.6448 29.0771H88.6687C88.6642 28.9769 88.6585 28.8527 88.6516 28.7046C88.6448 28.5565 88.638 28.4004 88.6311 28.2363C88.6266 28.07 88.6243 27.9128 88.6243 27.7646V25.0029H89.2737V30ZM94.2073 30H93.5032V25.6079H91.9857V25.0029H95.7215V25.6079H94.2073V30Z" fill="white"/>
<defs>
<filter id="filter0_d_1188_932" x="0" y="1.89941" width="42.8201" height="44.7195" filterUnits="userSpaceOnUse" color-interpolation-filters="sRGB">
<feFlood flood-opacity="0" result="BackgroundImageFix"/>
<feColorMatrix in="SourceAlpha" type="matrix" values="0 0 0 0 0 0 0 0 0 0 0 0 0 0 0 0 0 0 127 0" result="hardAlpha"/>
<feOffset dy="4"/>
<feGaussianBlur stdDeviation="2"/>
<feComposite in2="hardAlpha" operator="out"/>
<feColorMatrix type="matrix" values="0 0 0 0 0 0 0 0 0 0 0 0 0 0 0 0 0 0 0.1 0"/>
<feBlend mode="normal" in2="BackgroundImageFix" result="effect1_dropShadow_1188_932"/>
<feBlend mode="normal" in="SourceGraphic" in2="effect1_dropShadow_1188_932" result="shape"/>
</filter>
<linearGradient id="paint0_linear_1188_932" x1="21.4104" y1="14.6164" x2="21.4104" y2="36.9996" gradientUnits="userSpaceOnUse">
<stop stop-color="#6AC37F"/>
<stop offset="0.48" stop-color="#317D9B"/>
<stop offset="0.83" stop-color="#1347D8"/>
<stop offset="1" stop-color="#0833F1"/>
</linearGradient>
<linearGradient id="paint1_linear_1188_932" x1="22.3596" y1="11.4352" x2="22.3596" y2="43.5856" gradientUnits="userSpaceOnUse">
<stop stop-color="#6AC37F"/>
<stop offset="0.48" stop-color="#317D9B"/>
<stop offset="0.83" stop-color="#1347D8"/>
<stop offset="1" stop-color="#0833F1"/>
</linearGradient>
</defs>
</svg>
